<svg width="18" height="14" viewBox="0 0 18 14" fill="none" xmlns="http://www.w3.org/2000/svg">
<path d="M16.418 0.787109H1.58203C0.707941 0.787109 0 1.49945 0 2.36914V11.8613C0 12.7362 0.713145 13.4434 1.58203 13.4434H16.418C17.2847 13.4434 18 12.7392 18 11.8613V2.36914C18 1.50099 17.2949 0.787109 16.418 0.787109ZM16.1964 1.8418C15.8732 2.1633 10.3107 7.69647 10.1187 7.88751C9.81984 8.18634 9.42258 8.35087 9 8.35087C8.57742 8.35087 8.18016 8.1863 7.88034 7.88653C7.75118 7.75803 2.25011 2.28596 1.80359 1.8418H16.1964ZM1.05469 11.6467V2.58447L5.61227 7.11805L1.05469 11.6467ZM1.80425 12.3887L6.36005 7.86185L7.13556 8.63328C7.63358 9.1313 8.29571 9.40556 9 9.40556C9.70429 9.40556 10.3664 9.1313 10.8635 8.63427L11.64 7.86185L16.1957 12.3887H1.80425ZM16.9453 11.6467L12.3877 7.11805L16.9453 2.58447V11.6467Z" fill="#CCCCCC"/>
</svg>
